<svg width="32" height="32" viewBox="0 0 32 32" fill="none" xmlns="http://www.w3.org/2000/svg">
<path d="M16.6587 13.1503C16.6587 11.0191 14.9149 9.27531 12.7837 9.27531C10.6524 9.27531 8.90867 11.0191 8.90867 13.1503C8.90867 15.2816 10.6524 17.0253 12.7837 17.0253C14.9149 17.0253 16.6587 15.2816 16.6587 13.1503ZM12.7837 14.442C12.0733 14.442 11.492 13.8607 11.492 13.1503C11.492 12.4399 12.0733 11.8586 12.7837 11.8586C13.4941 11.8586 14.0753 12.4399 14.0753 13.1503C14.0753 13.8607 13.4941 14.442 12.7837 14.442ZM21.1795 17.0253C22.6133 17.0253 23.7628 15.8757 23.7628 14.442C23.7628 13.0082 22.6133 11.8586 21.1795 11.8586C19.7458 11.8586 18.5833 13.0082 18.5962 14.442C18.5962 15.8757 19.7458 17.0253 21.1795 17.0253ZM15.9999 2.8299C8.86992 2.8299 3.08325 8.61656 3.08325 15.7466C3.08325 22.8766 8.86992 28.6632 15.9999 28.6632C23.1299 28.6632 28.9166 22.8766 28.9166 15.7466C28.9166 8.61656 23.1299 2.8299 15.9999 2.8299ZM8.05617 22.347C8.9345 21.6495 10.9883 20.9132 12.7837 20.9132C12.8741 20.9132 12.9774 20.9261 13.0808 20.9261C13.3908 20.0995 13.9462 19.2599 14.7599 18.5236C14.0366 18.3945 13.352 18.317 12.7837 18.317C11.1045 18.317 8.40492 18.8982 6.67409 20.1641C6.02825 18.8207 5.66659 17.3224 5.66659 15.7336C5.66659 10.0374 10.3037 5.40031 15.9999 5.40031C21.6962 5.40031 26.3333 10.0374 26.3333 15.7336C26.3333 17.2836 25.9845 18.7561 25.3645 20.0866C24.0728 19.3245 22.3162 18.9628 21.1795 18.9628C19.2162 18.9628 15.367 20.0091 15.367 22.4503V26.0411C12.4349 25.8732 9.82575 24.4782 8.05617 22.347Z" fill="#2349FF"/>
</svg>
